<svg xmlns="http://www.w3.org/2000/svg" xmlns:xlink="http://www.w3.org/1999/xlink" width="82" height="82" viewBox="0 0 82 82">
  <defs>
    <clipPath id="clip-path">
      <rect id="Rectángulo_17274" data-name="Rectángulo 17274" width="82" height="82"/>
    </clipPath>
  </defs>
  <g id="Save_Icon_icon-icons.com_69139" transform="translate(-50 -140)">
    <g id="Grupo_9419" data-name="Grupo 9419" transform="translate(50 140)">
      <g id="Grupo_9418" data-name="Grupo 9418" clip-path="url(#clip-path)">
        <path id="Trazado_1049" data-name="Trazado 1049" d="M131.68,216.4V158.167h0a2.1,2.1,0,0,0-.654-1.436L114.993,140.7a2.849,2.849,0,0,0-1.867-.718H55.265S50,139.98,50,145.245V216.4s0,5.265,5.265,5.265h71.151s5.265,0,5.265-5.265Zm-17.389-50.412a3.437,3.437,0,0,1-3.51,3.51H70.9a3.437,3.437,0,0,1-3.51-3.51V149.233a3.437,3.437,0,0,1,3.51-3.51h39.883a3.437,3.437,0,0,1,3.51,3.51v16.751Zm11.646,46.423a3.437,3.437,0,0,1-3.51,3.51H59.253a3.437,3.437,0,0,1-3.51-3.51V180.5a3.437,3.437,0,0,1,3.51-3.51h63.174a3.437,3.437,0,0,1,3.51,3.51v31.906Zm-14.517-47.54V150.35a2.344,2.344,0,0,0-2.393-2.393h-7.817a2.344,2.344,0,0,0-2.393,2.393v14.517a2.344,2.344,0,0,0,2.393,2.393h7.817a2.344,2.344,0,0,0,2.393-2.393Z" transform="translate(-50 -139.98)" fill="#00aeef"/>
      </g>
    </g>
  </g>
</svg>
