<svg xmlns="http://www.w3.org/2000/svg" xmlns:xlink="http://www.w3.org/1999/xlink" width="48" height="48" viewBox="0 0 48 48">
  <defs>
    <clipPath id="clip-path">
      <rect id="user_group_Background_Mask_" data-name="user / group (Background/Mask)" width="48" height="48" transform="translate(-0.171 -0.171)" fill="none"/>
    </clipPath>
  </defs>
  <g id="user_group" data-name="user / group" transform="translate(0.171 0.171)" clip-path="url(#clip-path)">
    <path id="coolicon" d="M3.986,35.875H0a13.952,13.952,0,0,1,27.9,0H23.917a9.965,9.965,0,0,0-19.931,0Zm35.875,0H35.875A7.972,7.972,0,0,0,27.9,27.9V23.917a11.929,11.929,0,0,1,3.986.686c.2.072.4.147.6.225a11.958,11.958,0,0,1,6.466,6.464c.08.2.155.389.225.6A11.931,11.931,0,0,1,39.862,35.875ZM27.9,21.924a8.037,8.037,0,0,1-.849-.046c-.147-.016-.291-.036-.413-.056a8,8,0,0,1-3.436-1.429l2.348-3.221A3.986,3.986,0,1,0,27.9,9.965V5.979a8.02,8.02,0,0,1,3.619.869c.124.062.247.13.367.2A7.971,7.971,0,0,1,27.9,21.924ZM13.952,19.931a9.965,9.965,0,1,1,9.965-9.965A9.965,9.965,0,0,1,13.952,19.931Zm0-15.945a5.979,5.979,0,1,0,5.979,5.979,5.979,5.979,0,0,0-5.979-5.979Z" transform="translate(3.962 5.955)" fill="#ffbaff"/>
  </g>
</svg>
