<svg xmlns="http://www.w3.org/2000/svg" xmlns:xlink="http://www.w3.org/1999/xlink" width="34" height="34" viewBox="0 0 34 34">
  <defs>
    <clipPath id="clip-path">
      <rect id="basic_settings_Background_Mask_" data-name="basic / settings (Background/Mask)" width="34" height="34" fill="none"/>
    </clipPath>
  </defs>
  <g id="basic_-_settings" data-name="basic - settings" transform="translate(0 -0.271)">
    <rect id="basic_settings_Background_Mask_2" data-name="basic / settings (Background/Mask)" width="34" height="34" transform="translate(0 0.271)" fill="none"/>
    <g id="basic_settings" data-name="basic / settings" transform="translate(0 0.271)" clip-path="url(#clip-path)">
      <path id="coolicon" d="M16.433,28.52H11.241A1.417,1.417,0,0,1,9.847,27.4L9.27,24.713a11.428,11.428,0,0,1-2.189-1.265l-2.62.834a1.426,1.426,0,0,1-1.668-.646l-2.6-4.493a1.426,1.426,0,0,1,.275-1.767L2.5,15.522A11.564,11.564,0,0,1,2.5,13L.466,11.146A1.426,1.426,0,0,1,.189,9.377l2.6-4.5a1.426,1.426,0,0,1,1.668-.646l2.62.834a11.762,11.762,0,0,1,1.084-.713,11.638,11.638,0,0,1,1.112-.55l.58-2.684A1.417,1.417,0,0,1,11.241,0h5.191a1.417,1.417,0,0,1,1.395,1.122l.588,2.687a11.4,11.4,0,0,1,1.168.6,11.193,11.193,0,0,1,1.02.669l2.621-.834a1.426,1.426,0,0,1,1.667.647l2.6,4.5a1.426,1.426,0,0,1-.275,1.767L25.177,13a11.567,11.567,0,0,1,0,2.527l2.032,1.854a1.426,1.426,0,0,1,.275,1.767l-2.6,4.5a1.426,1.426,0,0,1-1.667.647L20.6,23.461a11.529,11.529,0,0,1-2.189,1.263L17.826,27.4A1.426,1.426,0,0,1,16.433,28.52Zm-8.841-8.23h0l1.168.856a8.442,8.442,0,0,0,.823.533,8.682,8.682,0,0,0,.827.428l1.329.585.653,2.976h2.895l.65-2.983,1.33-.585a8.747,8.747,0,0,0,1.644-.95l1.171-.856,2.911.928,1.447-2.508-2.257-2.058.16-1.443a8.556,8.556,0,0,0,0-1.9l-.16-1.443,2.26-2.061L22.994,7.3l-2.911.927-1.171-.856a8.893,8.893,0,0,0-1.644-.957l-1.33-.583-.652-2.982H12.391l-.655,2.983-1.326.582a8.368,8.368,0,0,0-.827.418,8.532,8.532,0,0,0-.819.532l-1.171.856L4.685,7.3,3.235,9.811l2.256,2.055L5.333,13.31a8.556,8.556,0,0,0,0,1.9l.16,1.443L3.235,18.711l1.446,2.507,2.909-.927Zm6.242-.327a5.7,5.7,0,1,1,5.7-5.7A5.7,5.7,0,0,1,13.833,19.964Zm0-8.556a2.852,2.852,0,0,0-.083,5.7h.083A2.852,2.852,0,0,0,16.685,14.4V14.26A2.852,2.852,0,0,0,13.833,11.408Z" transform="translate(3.275 2.628)" fill="#fff"/>
    </g>
  </g>
</svg>
