<svg id="user_user_circle" data-name="user / user_circle" xmlns="http://www.w3.org/2000/svg" width="48" height="48" viewBox="0 0 48 48">
  <rect id="user_user_circle_Background_Mask_" data-name="user / user_circle (Background/Mask)" width="48" height="48" fill="none"/>
  <g id="Grupo_9280" data-name="Grupo 9280">
    <path id="coolicon" d="M19.941,40a19.91,19.91,0,0,1-8.669-2,20.242,20.242,0,0,1-2.849-1.69l-.274-.2A20.287,20.287,0,0,1,2.22,29.167,20,20,0,1,1,40,20a19.854,19.854,0,0,1-2.218,9.164A19.89,19.89,0,0,1,28.9,37.9l-.16.079A19.911,19.911,0,0,1,20.035,40h-.094Zm.04-10a7.946,7.946,0,0,0-7.094,4.333,16.021,16.021,0,0,0,14.227,0v-.009A7.94,7.94,0,0,0,20.024,30h-.043ZM20,26a12.056,12.056,0,0,1,10.458,6.113l.012-.01-.009.007.051-.049-.024.027-.018.015.013-.01.032-.03a16,16,0,1,0-20.974.047A12.055,12.055,0,0,1,20,26Zm0-2a8,8,0,1,1,5.657-2.342A8.008,8.008,0,0,1,20,24Zm0-12a4,4,0,1,0,4,4A4,4,0,0,0,20,12Z" transform="translate(4 4)" fill="#ffbaff"/>
  </g>
</svg>
