<svg xmlns="http://www.w3.org/2000/svg" width="24.195" height="24" viewBox="0 0 24.195 24">
  <g id="usuario-de-perfil" transform="translate(0 -0.001)">
    <path id="Trazado_1" data-name="Trazado 1" d="M12.1,0A12,12,0,1,0,24.2,12,12.05,12.05,0,0,0,12.1,0Zm0,3.588a3.969,3.969,0,1,1-4,3.969A3.986,3.986,0,0,1,12.1,3.589Zm0,17.274a8.921,8.921,0,0,1-5.782-2.115,1.686,1.686,0,0,1-.6-1.286,4.019,4.019,0,0,1,4.055-4h4.656a4.014,4.014,0,0,1,4.049,4,1.682,1.682,0,0,1-.6,1.285A8.918,8.918,0,0,1,12.1,20.864Z" fill="#c5c1c1"/>
  </g>
</svg>
